<?xml version="1.0" standalone="no"?><!DOCTYPE svg PUBLIC "-//W3C//DTD SVG 1.1//EN" "http://www.w3.org/Graphics/SVG/1.1/DTD/svg11.dtd"><svg t="1621668638561" class="icon" viewBox="0 0 1024 1024" version="1.1" xmlns="http://www.w3.org/2000/svg" p-id="4660" xmlns:xlink="http://www.w3.org/1999/xlink" width="200" height="200"><defs><style type="text/css"></style></defs><path d="M512 64.566C264.887 64.566 64.564 264.888 64.564 512c0 247.11 200.323 447.433 447.436 447.433 247.111 0 447.436-200.323 447.436-447.433C959.436 264.888 759.11 64.566 512 64.566z m246.734 310.812L456.731 677.384c-7.108 7.107-16.85 9.97-26.084 8.597-9.233 1.374-18.975-1.49-26.083-8.597l-139.3-139.3c-11.913-11.914-11.913-31.231 0-43.145 11.914-11.914 31.23-11.914 43.144 0l122.24 122.24L715.59 332.237c11.914-11.913 31.23-11.913 43.142 0 11.915 11.913 11.915 31.23 0.001 43.142z" p-id="4661" fill="#d81e06"></path></svg>