<?xml version="1.0" standalone="no"?><!DOCTYPE svg PUBLIC "-//W3C//DTD SVG 1.1//EN" "http://www.w3.org/Graphics/SVG/1.1/DTD/svg11.dtd"><svg t="1621253285846" class="icon" viewBox="0 0 1024 1024" version="1.1" xmlns="http://www.w3.org/2000/svg" p-id="548" xmlns:xlink="http://www.w3.org/1999/xlink" width="200" height="200"><defs><style type="text/css"></style></defs><path d="M315.549538 354.461538l-18.786461-0.393846A59.076923 59.076923 0 0 0 236.307692 411.687385V689.230769a78.769231 78.769231 0 1 0 157.538462 0V294.990769a19.692308 19.692308 0 0 1 19.692308-19.692307l315.076923 0.354461a19.692308 19.692308 0 0 1 19.692307 19.692308V689.230769a19.692308 19.692308 0 0 1-19.692307 19.692308h-275.692308a19.692308 19.692308 0 1 0 0 39.384615h275.692308a59.076923 59.076923 0 0 0 59.076923-59.076923V295.345231a59.076923 59.076923 0 0 0-58.998154-59.076923l-315.076923-0.393846A59.076923 59.076923 0 0 0 354.461538 294.990769V689.230769a39.384615 39.384615 0 0 1-78.76923 0v-276.125538a19.771077 19.771077 0 0 1 20.164923-19.692308l18.747077 0.393846A19.692308 19.692308 0 1 0 315.549538 354.461538z" p-id="549"></path><path d="M452.923077 354.461538h118.153846a19.692308 19.692308 0 0 1 0 39.384616h-118.153846a19.692308 19.692308 0 0 1 0-39.384616z m0 118.153847h236.307692a19.692308 19.692308 0 1 1 0 39.384615h-236.307692a19.692308 19.692308 0 0 1 0-39.384615z m0 118.153846h236.307692a19.692308 19.692308 0 1 1 0 39.384615h-236.307692a19.692308 19.692308 0 1 1 0-39.384615z" p-id="550"></path></svg>