<?xml version="1.0" standalone="no"?><!DOCTYPE svg PUBLIC "-//W3C//DTD SVG 1.1//EN" "http://www.w3.org/Graphics/SVG/1.1/DTD/svg11.dtd"><svg t="1621764625665" class="icon" viewBox="0 0 1024 1024" version="1.1" xmlns="http://www.w3.org/2000/svg" p-id="2545" xmlns:xlink="http://www.w3.org/1999/xlink" width="200" height="200"><defs><style type="text/css"></style></defs><path d="M861.4 960H162.6C98.1 960 64 925.9 64 861.4V167.9v-5.3C64 98.1 98.1 64 162.6 64h616.7c61.2 2.6 93.4 36.7 93.4 98.6v76.5c57.2 3.8 87.3 37.6 87.3 98.2v524.1c0 64.5-34.1 98.6-98.6 98.6zM86.5 233.9v627.5c0 51.9 24.2 76.1 76.1 76.1h698.8c51.9 0 76.1-24.2 76.1-76.1v-146h-270c-32.2 0-59.6-11.8-81.5-35-20.6-21.9-31-49.1-31-81.1 0-30.8 10.4-57.5 31-79.3 21.9-23.2 49.3-35 81.5-35h270V337.3c0-51.9-24.2-76.1-76.1-76.1H162.6c-34 0-59.5-9.3-76.1-27.3z m581 273.6c-26.1 0-47.4 9.1-65.2 27.9-16.8 17.8-24.9 38.7-24.9 63.9 0 26.4 8.2 47.9 24.9 65.6 17.7 18.8 39 27.9 65.2 27.9h270V507.5h-270z m-581-339.8c1.1 48.4 25.2 71 76.1 71h687.6v-76.1c0-49.9-22.7-74-71.3-76.1H162.7c-51.9 0-76.1 24.2-76.1 76.1v5.1z" fill="#ea9518" p-id="2546"></path></svg>